<svg xmlns="http://www.w3.org/2000/svg" xmlns:xlink="http://www.w3.org/1999/xlink" id="&#x5716;&#x5C64;_1" x="0px" y="0px" viewBox="0 0 1044.3 118.2" style="enable-background:new 0 0 1044.3 118.2;" xml:space="preserve"><style type="text/css">	.st0{fill:#F2F2F2;}</style><g>	<g>		<path class="st0" d="M532.8,47.4C532.8,47.4,532.8,47.4,532.8,47.4c5.3-4.6,13.2-9.1,17.7-11.1c0.2-0.1,0.5-0.2,0.7-0.3   c0.3-0.1,0.5-0.2,0.8-0.4c0.5-0.2,0.9-0.5,1.3-0.8c1.4-1.2,2.2-2.9,2.2-4.6c0,0,0,0,0,0c0-0.2,0-0.3,0-0.5c0,0,0-0.1,0-0.1   c0-0.1,0-0.3,0-0.4c0-0.1,0-0.1,0-0.2c0-0.1,0-0.3-0.1-0.4c0-0.1,0-0.1,0-0.2c0-0.1-0.1-0.2-0.1-0.3c0-0.1-0.1-0.2-0.1-0.2   c0-0.1-0.1-0.2-0.1-0.3c0-0.1-0.1-0.2-0.1-0.3c0-0.1-0.1-0.2-0.1-0.3c-0.1-0.1-0.1-0.2-0.2-0.3c0-0.1-0.1-0.1-0.1-0.2   c-0.1-0.2-0.2-0.3-0.3-0.5c0,0,0,0,0,0c0,0,0,0,0,0c0,0,0,0,0,0c0,0,0,0,0,0c-0.1-0.1-0.3-0.3-0.4-0.4c-0.1-0.1-0.1-0.1-0.2-0.2   c-0.1-0.1-0.2-0.2-0.3-0.2c-0.1-0.1-0.2-0.1-0.2-0.2c-0.1-0.1-0.2-0.1-0.2-0.2c-0.1-0.1-0.2-0.1-0.3-0.2c-0.1,0-0.1-0.1-0.2-0.1   c-0.1-0.1-0.2-0.1-0.3-0.2c-0.1,0-0.1-0.1-0.2-0.1c-0.1-0.1-0.2-0.1-0.4-0.1c-0.1,0-0.1,0-0.2-0.1c-0.1,0-0.3-0.1-0.4-0.1   c0,0-0.1,0-0.1,0c-0.2,0-0.3-0.1-0.5-0.1c0,0,0,0,0,0c-0.2,0-0.4-0.1-0.6-0.1c-1.8-0.1-3.5,0.4-4.9,1.5c-0.2,0.2-0.5,0.4-0.7,0.6   c-3.5,3.3-7.1,7.2-12.6,16.2C532.3,43.6,532.8,45.4,532.8,47.4z"></path>		<path class="st0" d="M491,34.7c0.4,0.3,0.9,0.6,1.3,0.8c0.2,0.1,0.5,0.2,0.8,0.4c0.2,0.1,0.4,0.2,0.7,0.3   c4.6,2,12.5,6.5,17.8,11.2c0,0,0-0.1,0-0.1c0-2,0.5-3.8,1.5-5.4c-5.5-9.1-9.2-12.9-12.6-16.2c-0.3-0.2-0.5-0.4-0.7-0.6   c-1.4-1-3.2-1.6-4.9-1.5c-0.2,0-0.4,0-0.6,0.1c0,0,0,0,0,0c-0.2,0-0.3,0.1-0.5,0.1c0,0-0.1,0-0.1,0c-0.1,0-0.3,0.1-0.4,0.1   c-0.1,0-0.1,0-0.2,0.1c-0.1,0-0.2,0.1-0.4,0.1c-0.1,0-0.1,0.1-0.2,0.1c-0.1,0.1-0.2,0.1-0.3,0.2c-0.1,0-0.1,0.1-0.2,0.1   c-0.1,0.1-0.2,0.1-0.3,0.2c-0.1,0.1-0.2,0.1-0.2,0.2c-0.1,0.1-0.2,0.1-0.2,0.2c-0.1,0.1-0.2,0.2-0.3,0.2c-0.1,0.1-0.1,0.1-0.2,0.2   c-0.1,0.1-0.3,0.3-0.4,0.4c0,0,0,0,0,0c0,0,0,0,0,0c0,0,0,0,0,0c0,0,0,0,0,0c-0.1,0.1-0.2,0.3-0.3,0.5c0,0.1-0.1,0.1-0.1,0.2   c-0.1,0.1-0.1,0.2-0.2,0.3c0,0.1-0.1,0.2-0.1,0.3c0,0.1-0.1,0.2-0.1,0.3c0,0.1-0.1,0.2-0.1,0.3c0,0.1-0.1,0.2-0.1,0.2   c0,0.1-0.1,0.2-0.1,0.3c0,0.1,0,0.1,0,0.2c0,0.1-0.1,0.3-0.1,0.4c0,0.1,0,0.1,0,0.2c0,0.1,0,0.3,0,0.4c0,0,0,0.1,0,0.1   c0,0.2,0,0.3,0,0.5c0,0,0,0,0,0C488.8,31.8,489.5,33.5,491,34.7z"></path>		<path class="st0" d="M1044.3,118.2c-153.4-51.1-363.6-64.4-464-67.8c-4.5-0.3-11.7-0.4-20.3-0.5c0.2,0,0.3-0.1,0.5-0.1   c2-0.6,3.5-1.9,4.2-3.6c0,0,0,0,0,0c0.1-0.2,0.1-0.3,0.2-0.5c0,0,0-0.1,0-0.1c0.1-0.1,0.1-0.3,0.1-0.4c0-0.1,0-0.1,0-0.2   c0-0.1,0.1-0.3,0.1-0.4c0-0.1,0-0.1,0-0.2c0-0.1,0-0.2,0-0.4c0-0.1,0-0.2,0-0.3c0-0.1,0-0.2,0-0.3c0-0.1,0-0.2,0-0.3   c0-0.1,0-0.2,0-0.3c0-0.1,0-0.2-0.1-0.4c0-0.1,0-0.2,0-0.3c0-0.2-0.1-0.4-0.2-0.6c0,0,0,0,0,0c0,0,0,0,0,0c0,0,0,0,0,0   c0,0,0,0,0,0c-0.1-0.2-0.1-0.4-0.2-0.6c0-0.1-0.1-0.2-0.1-0.2c-0.1-0.1-0.1-0.2-0.2-0.3c-0.1-0.1-0.1-0.2-0.2-0.3   c-0.1-0.1-0.1-0.2-0.2-0.3c-0.1-0.1-0.1-0.2-0.2-0.3c-0.1-0.1-0.1-0.1-0.2-0.2c-0.1-0.1-0.2-0.2-0.3-0.3c0-0.1-0.1-0.1-0.2-0.2   c-0.1-0.1-0.2-0.2-0.3-0.3c0,0-0.1-0.1-0.1-0.1c-0.1-0.1-0.2-0.2-0.4-0.3c0,0-0.1,0-0.1-0.1c-0.1-0.1-0.3-0.2-0.4-0.3c0,0,0,0,0,0   c-0.2-0.1-0.4-0.2-0.6-0.3c-1.7-0.8-3.8-1-5.6-0.6c-0.3,0.1-0.6,0.2-1,0.3c-5.4,2-11.1,4.5-22.2,12.4c-1,4.8-5.3,8.5-10.4,8.5   s-9.4-3.6-10.4-8.5c-11-7.9-16.8-10.4-22.2-12.4c-0.3-0.1-0.7-0.2-1-0.3c-1.9-0.4-3.9-0.3-5.6,0.6c-0.2,0.1-0.4,0.2-0.6,0.3   c0,0,0,0,0,0c-0.2,0.1-0.3,0.2-0.4,0.3c0,0-0.1,0-0.1,0.1c-0.1,0.1-0.2,0.2-0.4,0.3c0,0-0.1,0.1-0.1,0.1c-0.1,0.1-0.2,0.2-0.3,0.3   c-0.1,0.1-0.1,0.1-0.2,0.2c-0.1,0.1-0.2,0.2-0.3,0.3c-0.1,0.1-0.1,0.1-0.2,0.2c-0.1,0.1-0.1,0.2-0.2,0.3c-0.1,0.1-0.1,0.2-0.2,0.3   c-0.1,0.1-0.1,0.2-0.2,0.3c-0.1,0.1-0.1,0.2-0.2,0.3c0,0.1-0.1,0.2-0.1,0.2c-0.1,0.2-0.2,0.4-0.2,0.6c0,0,0,0,0,0c0,0,0,0,0,0   c0,0,0,0,0,0c0,0,0,0,0,0c-0.1,0.2-0.1,0.4-0.2,0.6c0,0.1,0,0.2,0,0.3c0,0.1,0,0.2-0.1,0.4c0,0.1,0,0.2,0,0.3c0,0.1,0,0.2,0,0.3   c0,0.1,0,0.2,0,0.3c0,0.1,0,0.2,0,0.3c0,0.1,0,0.3,0,0.4c0,0.1,0,0.1,0,0.2c0,0.1,0.1,0.3,0.1,0.4c0,0.1,0,0.1,0,0.2   c0,0.1,0.1,0.3,0.1,0.4c0,0,0,0.1,0,0.1c0.1,0.2,0.1,0.3,0.2,0.5c0,0,0,0,0,0c0.8,1.7,2.3,3,4.2,3.6c0.5,0.2,1.1,0.2,1.6,0.3   c-12.8,0.1-21.5,0.3-21.5,0.4C363.6,53.8,153.4,67.1,0,118.2"></path>	</g>	<path class="st0" d="M514.8,15.2c1.6,5,3.1,10.4,4.6,21.9c0.9-0.2,1.8-0.4,2.8-0.4s1.9,0.1,2.8,0.4c1.5-11.5,3-16.9,4.6-21.9  c0.5-1.4,0.8-2.5,1-3.6c0.2-0.7,0.3-1.5,0.3-2.3c0-2.8-1.1-5.3-2.9-7c0,0,0,0,0,0c-0.2-0.2-0.3-0.3-0.5-0.4c0,0-0.1-0.1-0.1-0.1  c-0.2-0.1-0.3-0.2-0.5-0.4c-0.1,0-0.1-0.1-0.2-0.1c-0.2-0.1-0.3-0.2-0.5-0.3c-0.1,0-0.2-0.1-0.3-0.1c-0.1-0.1-0.3-0.1-0.5-0.2  c-0.1,0-0.2-0.1-0.3-0.1c-0.1-0.1-0.3-0.1-0.4-0.2c-0.1,0-0.3-0.1-0.4-0.1c-0.1,0-0.3-0.1-0.4-0.1c-0.2,0-0.3-0.1-0.5-0.1  c-0.1,0-0.2,0-0.3-0.1c-0.3,0-0.5,0-0.8,0c0,0,0,0-0.1,0h0c0,0,0,0,0,0s0,0,0,0h0c0,0,0,0-0.1,0c-0.3,0-0.5,0-0.8,0  c-0.1,0-0.2,0-0.3,0.1c-0.2,0-0.3,0-0.5,0.1c-0.1,0-0.3,0.1-0.4,0.1c-0.1,0-0.3,0.1-0.4,0.1c-0.1,0-0.3,0.1-0.4,0.2  c-0.1,0-0.2,0.1-0.3,0.1c-0.2,0.1-0.3,0.1-0.5,0.2c-0.1,0-0.2,0.1-0.3,0.1c-0.2,0.1-0.3,0.2-0.5,0.3c-0.1,0-0.1,0.1-0.2,0.1  c-0.2,0.1-0.3,0.2-0.5,0.4c0,0-0.1,0.1-0.1,0.1c-0.2,0.1-0.4,0.3-0.5,0.4c0,0,0,0,0,0c-1.8,1.7-2.9,4.2-2.9,7  c0,0.8,0.1,1.6,0.3,2.3C514,12.6,514.3,13.8,514.8,15.2z"></path>	<path class="st0" d="M545,15C545,15,545,15,545,15c-0.1-0.2-0.1-0.3-0.2-0.5c0,0,0-0.1,0-0.1c-0.1-0.1-0.1-0.3-0.2-0.4  c0,0-0.1-0.1-0.1-0.1c-0.1-0.1-0.1-0.2-0.2-0.3c0-0.1-0.1-0.1-0.1-0.2c-0.1-0.1-0.2-0.2-0.2-0.3c-0.1-0.1-0.1-0.1-0.2-0.2  c-0.1-0.1-0.2-0.2-0.2-0.3c-0.1-0.1-0.1-0.1-0.2-0.2c-0.1-0.1-0.2-0.1-0.2-0.2c-0.1-0.1-0.2-0.1-0.3-0.2c-0.1-0.1-0.1-0.1-0.2-0.2  c-0.2-0.1-0.3-0.2-0.5-0.3c0,0,0,0,0,0c0,0,0,0,0,0c0,0,0,0,0,0c0,0,0,0,0,0c-0.2-0.1-0.4-0.2-0.5-0.3c-0.1,0-0.2-0.1-0.3-0.1  c-0.1,0-0.2-0.1-0.3-0.1c-0.1,0-0.2-0.1-0.3-0.1c-0.1,0-0.2,0-0.3-0.1c-0.1,0-0.2,0-0.3-0.1c-0.1,0-0.2,0-0.3,0c-0.1,0-0.3,0-0.4,0  c-0.1,0-0.1,0-0.2,0c-0.1,0-0.3,0-0.4,0c-0.1,0-0.1,0-0.2,0c-0.2,0-0.3,0-0.4,0c0,0-0.1,0-0.1,0c-0.2,0-0.3,0.1-0.5,0.1  c0,0,0,0,0,0c-0.2,0.1-0.4,0.1-0.6,0.2c-1.8,0.6-3.2,1.8-4.2,3.4c-0.2,0.3-0.3,0.5-0.5,0.9c-2.1,4.8-3.2,10.4-5.8,22  c1.6,0.6,2.9,1.6,4,2.9c3.3-6.5,8.9-13.7,12.4-17.3c0.2-0.2,0.4-0.4,0.5-0.6c0.2-0.2,0.4-0.5,0.6-0.7c0.4-0.4,0.7-0.9,1-1.4  C545.6,18.7,545.6,16.7,545,15z"></path>	<path class="st0" d="M518.1,37.5c-2.6-11.7-3.7-17.3-5.8-22c-0.2-0.3-0.3-0.6-0.5-0.9c-1-1.6-2.5-2.8-4.2-3.4  c-0.2-0.1-0.4-0.1-0.6-0.2c0,0,0,0,0,0c-0.2,0-0.3-0.1-0.5-0.1c0,0-0.1,0-0.1,0c-0.1,0-0.3,0-0.4,0c-0.1,0-0.1,0-0.2,0  c-0.1,0-0.3,0-0.4,0c-0.1,0-0.1,0-0.2,0c-0.1,0-0.3,0-0.4,0c-0.1,0-0.2,0-0.3,0c-0.1,0-0.2,0-0.3,0.1c-0.1,0-0.2,0-0.3,0.1  c-0.1,0-0.2,0-0.3,0.1c-0.1,0-0.2,0.1-0.3,0.1c-0.1,0-0.2,0.1-0.3,0.1c-0.2,0.1-0.4,0.2-0.5,0.3c0,0,0,0,0,0c0,0,0,0,0,0  c0,0,0,0,0,0c0,0,0,0,0,0c-0.2,0.1-0.4,0.2-0.5,0.3c-0.1,0-0.1,0.1-0.2,0.2c-0.1,0.1-0.2,0.1-0.3,0.2c-0.1,0.1-0.2,0.1-0.2,0.2  c-0.1,0.1-0.2,0.1-0.2,0.2c-0.1,0.1-0.2,0.2-0.2,0.3c-0.1,0.1-0.1,0.1-0.2,0.2c-0.1,0.1-0.2,0.2-0.2,0.3c0,0.1-0.1,0.1-0.1,0.2  c-0.1,0.1-0.2,0.2-0.2,0.3c0,0-0.1,0.1-0.1,0.1c-0.1,0.1-0.1,0.3-0.2,0.4c0,0,0,0.1,0,0.1c-0.1,0.2-0.1,0.3-0.2,0.5c0,0,0,0,0,0  c-0.7,1.7-0.6,3.7,0.3,5.4c0.3,0.5,0.6,1,1,1.4c0.2,0.2,0.4,0.4,0.6,0.7c0.2,0.2,0.3,0.4,0.5,0.6c3.5,3.6,9.1,10.8,12.4,17.3  C515.2,39.1,516.6,38.1,518.1,37.5z"></path></g></svg>